<?xml version="1.0" encoding="utf-8"?>
<!-- Generator: Adobe Illustrator 22.0.0, SVG Export Plug-In . SVG Version: 6.00 Build 0)  -->
<svg version="1.1" id="svg" xmlns="http://www.w3.org/2000/svg" xmlns:xlink="http://www.w3.org/1999/xlink" x="0px" y="0px"
	 viewBox="0 0 130 151.2" style="enable-background:new 0 0 130 151.2;" xml:space="preserve">
<style type="text/css">
	.st0{fill:#B4B4B4;}
	.st1{fill:#CC041C;}
	.st2{fill:#040404;}
</style>
<g id="svgg">
	<path id="path0" class="st0" d="M91.3,60.6c0,0.7,0,1.7,0,2.2l0,0.9l2.3,0l2.3,0v-2.2v-2.2l-2.3,0l-2.3,0V60.6 M99.8,61.8v2.5
		l-5.5,0l-5.5,0v1.8V68l1.3,0l1.3,0v9.3v9.3h2.5h2.5v-9.3V68h1.7h1.7l0,2.9c0,9,0.1,12.3,0.3,12.3c0,0,0,0,0,0.1
		c0,0.1,0.1,0.2,0.1,0.4s0.2,0.4,0.2,0.4c0,0.1,0.1,0.1,0.1,0.1c0,0,0.1,0.1,0.1,0.2c0,0.1,0.1,0.2,0.1,0.2c0,0,0.1,0,0.1,0.1
		c0,0.1,0.1,0.1,0.2,0.2c0.1,0.1,0.1,0.1,0.1,0.2c0,0.1,0.4,0.4,0.4,0.4c0,0,0.1,0.1,0.2,0.1c0.1,0.1,0.2,0.1,0.2,0.1s0.1,0,0.1,0
		c0,0,0.1,0.1,0.3,0.2c0.2,0.1,0.3,0.1,0.3,0.2c0,0,0,0,0.1,0c0,0,0.2,0,0.3,0.1c0.1,0.1,0.3,0.1,0.4,0.1c0.1,0,0.2,0,0.2,0.1
		c0,0,0.3,0.1,0.6,0.1c0.3,0,0.5,0.1,0.5,0.1c0,0.1,5.9,0.1,6,0c0.1,0,0.1-0.3,0.1-2.2v-2.2l-2.2,0c-1.7,0-2.2,0-2.3-0.1
		c0,0-0.1-0.1-0.1-0.1s-0.1,0-0.1-0.1s0,0,0,0c0,0-0.1,0-0.1-0.1c-0.1-0.1-0.1-0.2-0.1-7l0-6.9h2.5h2.5v-1.9v-1.9h-2.5h-2.5v-2.5
		v-2.5h-2.8h-2.8V61.8"/>
	<path id="path1" class="st1" d="M112,64.9c0,5.3,0,4.9,0.4,4.7c0.1,0,0.4-0.1,0.6-0.2c0.2-0.1,0.4-0.1,0.5-0.2c0,0,0.2-0.1,0.3-0.1
		c0.1,0,0.2-0.1,0.2-0.1c0.1-0.1,0.6-0.2,0.7-0.2c0,0,0.2,0,0.2-0.1c0.1,0,0.2-0.1,0.3-0.1c0.1,0,0.1,0,0.1-0.1c0,0,0.1-0.1,0.2-0.1
		c0.1,0,0.2-0.1,0.2-0.1c0,0,0.1-0.1,0.2-0.1c0.1,0,0.2-0.1,0.2-0.1c0,0,0.1-0.1,0.2-0.1c0.1,0,0.2-0.1,0.2-0.1c0,0,0.1-0.1,0.2-0.1
		c0.1,0,0.2-0.1,0.2-0.1c0,0,0.1-0.1,0.2-0.1c0.1,0,0.3-0.1,0.3-0.1c0,0,0.1-0.1,0.2-0.1c0.1,0,0.2-0.1,0.2-0.1c0,0,0.1-0.1,0.2-0.1
		c0.1,0,0.2-0.1,0.3-0.1c0.2-0.1,0.8-0.3,0.9-0.3c0.1,0,0.1,0,0.1-0.1c0,0,0.1-0.1,0.1-0.1c0.1,0,0.1,0,0.1-0.1c0,0,0.1-0.1,0.2-0.1
		c0.1,0,0.2-0.1,0.2-0.1c0,0,0.1-0.1,0.2-0.1c0.1,0,0.2-0.1,0.2-0.1c0,0,0.1-0.1,0.2-0.1c0.1,0,0.2-0.1,0.2-0.1c0,0,0.1-0.1,0.2-0.1
		c0.1,0,0.2-0.1,0.2-0.1c0,0,0.1-0.1,0.2-0.1c0.1,0,0.2-0.1,0.2-0.1c0,0,0.1-0.1,0.2-0.1c0.1,0,0.3-0.1,0.3-0.1c0,0,0.1-0.1,0.2-0.1
		s0.2-0.1,0.2-0.1c0,0,0.1-0.1,0.3-0.1c0.1,0,0.2-0.1,0.2-0.1c0,0,0.1-0.1,0.2-0.1c0.1,0,0.2-0.1,0.2-0.1s0.1-0.1,0.2-0.1
		c0.1,0,0.2-0.1,0.2-0.1c0,0,0.1,0,0.1,0s0.1,0,0.1-0.1c0,0,0.1-0.1,0.2-0.1c0.1,0,0.2-0.1,0.2-0.1s0.1-0.1,0.1-0.1
		c0.1,0,0.1-0.1,0.1-0.1c0,0-0.1-0.1-0.1-0.1c-0.1,0-0.1,0-0.1-0.1c0,0-0.1-0.1-0.2-0.1c-0.1,0-0.3-0.1-0.3-0.1
		c-0.1,0-0.2-0.1-0.3-0.1c-0.1,0-0.1,0-0.1-0.1c0,0-0.1-0.1-0.2-0.1c-0.1,0-0.2-0.1-0.2-0.1c0,0-0.1-0.1-0.2-0.1
		c-0.1,0-0.2-0.1-0.2-0.1c0,0-0.1-0.1-0.2-0.1c-0.1,0-0.2-0.1-0.2-0.1c0,0-0.1-0.1-0.2-0.1c-0.1,0-0.2-0.1-0.2-0.1s-0.1-0.1-0.2-0.1
		c-0.1,0-0.2-0.1-0.2-0.1c0,0-0.1-0.1-0.2-0.1c-0.1,0-0.2-0.1-0.2-0.1s-0.1-0.1-0.2-0.1c-0.1,0-0.2-0.1-0.2-0.1c0,0-0.2-0.1-0.7-0.3
		c-0.2-0.1-0.4-0.1-0.5-0.2c0,0-0.1,0-0.1,0c0,0-0.2,0-0.2-0.1c-0.1,0-0.2-0.1-0.3-0.1c-0.1,0-0.2-0.1-0.2-0.1c0,0-0.1-0.1-0.2-0.1
		c-0.1,0-0.2-0.1-0.2-0.1c0,0-0.1-0.1-0.1-0.1c-0.1,0-0.2,0-0.3-0.1c-0.1-0.1-0.3-0.1-0.3-0.1c-0.1,0-0.1,0-0.1-0.1
		c0,0-0.1-0.1-0.2-0.1c-0.1,0-0.2-0.1-0.2-0.1c0,0-0.1-0.1-0.2-0.1c-0.1,0-0.2-0.1-0.2-0.1c0,0-0.1-0.1-0.2-0.1
		c-0.1,0-0.2-0.1-0.2-0.1c0,0-0.2-0.1-0.3-0.1c-0.2-0.1-0.4-0.1-0.5-0.2c-0.1,0-0.2-0.1-0.2-0.1c-0.1,0-0.1,0-0.1,0
		c0,0-0.1-0.1-0.2-0.1c-0.1,0-0.2-0.1-0.2-0.1s-0.1-0.1-0.2-0.1c-0.1,0-0.2-0.1-0.2-0.1c0,0-0.1-0.1-0.2-0.1c-0.1,0-0.3-0.1-0.3-0.1
		c0,0-0.1-0.1-0.2-0.1c-0.1,0-0.2-0.1-0.2-0.1c0,0-0.1-0.1-0.2-0.1c-0.1,0-0.2-0.1-0.2-0.1c0,0-0.1-0.1-0.2-0.1
		c-0.1,0-0.2-0.1-0.3-0.1c0,0-0.2-0.1-0.3-0.1l-0.3,0L112,64.9"/>
	<path id="path4" class="st2" d="M63.6,64.4c0,0-0.8,0.1-1.6,0.1c-1.1,0-1.6,0-1.6,0.1c0,0-0.2,0.1-0.4,0.1c-0.2,0-0.4,0.1-0.4,0.1
		c0,0-0.1,0.1-0.3,0.1c-0.1,0-0.3,0.1-0.3,0.1c0,0-0.1,0.1-0.2,0.1c-0.1,0-0.3,0.1-0.3,0.1c0,0-0.1,0.1-0.1,0.1
		c-0.1,0-0.1,0-0.1,0.1c0,0-0.1,0.1-0.2,0.1c-0.1,0-0.2,0.1-0.2,0.1c0,0-0.1,0.1-0.2,0.1c-0.1,0-0.2,0.1-0.2,0.1s-0.1,0.1-0.2,0.1
		c-0.1,0-0.2,0.1-0.2,0.1c0,0,0,0.1-0.1,0.1c0,0-0.1,0-0.1,0.1c0,0-0.1,0.1-0.2,0.1c-0.2,0.1-0.3,0.2-0.5,0.3
		c-0.1,0.1-0.1,0.1-0.2,0.1c-0.1,0-0.4,0.3-1,0.9l-0.6,0.6l-0.1-0.1c-0.1-0.1-0.1-0.5-0.1-1.7v-1.5l-9.1,0c-6.6,0-9.1,0-9.2,0.1
		c0,0-0.4,0.1-1,0.1c-0.5,0-1,0.1-1,0.1c0,0-0.2,0.1-0.5,0.1c-0.2,0-0.5,0.1-0.5,0.1c0,0-0.2,0.1-0.4,0.1c-0.2,0-0.3,0.1-0.3,0.1
		s-0.1,0-0.2,0c-0.1,0-0.2,0-0.2,0.1c0,0-0.1,0.1-0.3,0.1c-0.1,0-0.2,0.1-0.2,0.1c0,0-0.1,0.1-0.2,0.1c-0.1,0-0.2,0.1-0.2,0.1
		s-0.1,0.1-0.2,0.1c-0.1,0-0.2,0.1-0.2,0.1c0,0-0.1,0.1-0.2,0.1c-0.1,0-0.2,0.1-0.2,0.1s-0.1,0.1-0.1,0.1c-0.2,0.1-0.3,0.2-0.4,0.2
		c0,0-0.1,0.1-0.1,0.1c-0.1,0-0.1,0.1-0.1,0.1c0,0,0,0.1-0.1,0.1c0,0-0.1,0.1-0.2,0.2c-0.1,0.1-0.2,0.2-0.2,0.2
		c-0.1,0-0.7,0.6-0.7,0.7c0,0-0.1,0.1-0.2,0.2c-0.1,0.1-0.2,0.2-0.2,0.2c0,0,0,0.1-0.1,0.1c0,0-0.1,0.1-0.1,0.1
		c0,0.1-0.1,0.1-0.1,0.1c0,0-0.1,0.1-0.1,0.2c0,0.1-0.1,0.2-0.1,0.2s-0.1,0.1-0.1,0.2c0,0.1-0.1,0.2-0.1,0.2c0,0-0.1,0.1-0.1,0.2
		c0,0.1-0.1,0.2-0.1,0.2c-0.1,0-0.2,0.6-0.2,0.8c0,0.1,0,0.2-0.1,0.2c-0.1,0-0.1,1.7,0,1.7c0,0,0.1,0.1,0.1,0.3
		c0,0.1,0.1,0.2,0.1,0.2c0,0,0.1,0.1,0.1,0.1s0,0.1,0.1,0.1c0,0,0.1,0.1,0.1,0.2s0.1,0.2,0.1,0.2c0,0,0.1,0.1,0.1,0.2
		c0,0.1,0.1,0.2,0.1,0.2s0,0,0,0.1c0,0,0,0.1,0.1,0.1c0,0,0.1,0.1,0.1,0.1c0,0,0.1,0.1,0.2,0.2c0.1,0.1,0.2,0.2,0.2,0.2
		c0,0,0.2,0.3,0.7,0.7c0.1,0.1,0.2,0.1,0.3,0.2c0.1,0,0.1,0.1,0.1,0.1c0,0,0,0.1,0.1,0.1s0.1,0,0.1,0.1c0,0,0.1,0.1,0.2,0.1
		c0.1,0,0.1,0.1,0.1,0.1c0,0,0.1,0.1,0.2,0.1c0.1,0,0.2,0.1,0.2,0.1c0,0,0.1,0.1,0.1,0.1c0.1,0,0.2,0.1,0.2,0.1
		c0.1,0.1,0.4,0.2,0.5,0.2c0.1,0,0.1,0,0.1,0.1c0,0,0.1,0.1,0.2,0.1c0.1,0,0.2,0.1,0.2,0.1s0.1,0.1,0.2,0.1c0.1,0,0.2,0.1,0.2,0.1
		s0.1,0.1,0.2,0.1c0.1,0,0.2,0.1,0.2,0.1s0.1,0.1,0.3,0.1c0.2,0,0.3,0.1,0.3,0.1c0,0,0.1,0.1,0.3,0.1c0.1,0,0.3,0.1,0.3,0.1
		c0,0,0.1,0.1,0.3,0.1c0.2,0,0.3,0.1,0.3,0.1c0,0,0.2,0.1,0.4,0.1c0.2,0,0.4,0.1,0.4,0.1c0,0,0.2,0.1,0.4,0.1c0.2,0,0.4,0.1,0.4,0.1
		c0,0,0.1,0.1,0.2,0.1c0.1,0,0.2,0,0.2,0.1c0,0,0.2,0.1,0.5,0.1c0.2,0,0.4,0.1,0.4,0.1s0.2,0.1,0.5,0.1c0.3,0,0.5,0.1,0.5,0.1
		c0,0,0.2,0.1,0.5,0.1c0.3,0,0.6,0.1,0.6,0.1c0,0,0.4,0.1,0.7,0.1c0.4,0,0.7,0.1,0.7,0.1c0,0,0.1,0.1,0.3,0.1s0.3,0.1,0.3,0.1
		s0.1,0.1,0.2,0.1c0.1,0,0.2,0.1,0.2,0.1c0,0,0.1,0.1,0.1,0.1c0.1,0,0.7,0.6,0.7,0.7c0,0,0,0.1,0,0.1s0.1,0.1,0.1,0.2
		c0,0.1,0.1,0.2,0.1,0.2c0,0,0,0.1,0,0.1s0,0.1,0.1,0.1c0,0,0.1,0.2,0.1,0.5c0,0.3,0,0.5-0.1,0.5c0,0-0.1,0.1-0.1,0.2s0,0.2,0,0.2
		c0,0-0.1,0.1-0.1,0.2c0,0.1-0.1,0.2-0.1,0.2s0,0,0,0.1c0,0.1-0.5,0.8-0.6,0.8c0,0-0.1,0-0.1,0.1s-0.1,0.1-0.1,0.1
		c-0.1,0-0.1,0.1-0.1,0.1c0,0-0.1,0.1-0.1,0.1c-0.1,0-0.2,0.1-0.2,0.1c0,0-0.2,0.1-0.5,0.1c-0.3,0-0.5,0.1-0.5,0.1
		c0,0-0.4,0.1-0.9,0.1C38.4,82.9,38,83,38,83c0,0-0.4,0-0.9,0c-0.5,0-0.9,0-0.9,0c0,0-0.3-0.1-0.7-0.1s-0.7-0.1-0.7-0.1
		s-0.2-0.1-0.4-0.1c-0.2,0-0.4-0.1-0.4-0.1c0,0-0.1-0.1-0.2-0.1c-0.1,0-0.2-0.1-0.2-0.1c0,0,0,0-0.1,0c-0.1,0-0.2,0-0.2-0.1
		c-0.1,0-0.2-0.1-0.3-0.1s-0.2-0.1-0.2-0.1s0,0-0.1,0s-0.1,0-0.1,0S32.6,82,32.5,82c-0.1,0-0.1-0.1-0.1-0.1c0,0,0-0.1-0.1-0.1
		c-0.1,0-0.4-0.2-0.5-0.4c-0.1-0.1-0.1-0.1-0.2-0.1c-0.1,0-0.3-0.2-0.3-0.3c0,0-0.1-0.1-0.1-0.2c-0.1-0.1-0.4-0.4-0.4-0.5
		c0,0,0-0.1-0.1-0.2s-0.1-0.2-0.1-0.3c0-0.1-0.1-0.1-0.1-0.1c0,0,0-0.1,0-0.2v-0.2h-4h-4L22,79.9c-0.3,0.3-0.5,0.5-0.5,0.5
		c0,0-0.2,0.2-0.4,0.4c-0.2,0.2-0.4,0.4-0.4,0.4c0,0-0.1,0.1-0.2,0.2c-0.1,0.1-0.2,0.2-0.2,0.2c0,0-0.1,0-0.1,0.1
		c-0.1,0.1-0.1,0.1-0.2,0.1c0,0-0.1,0-0.1,0c0,0-0.1,0.1-0.3,0.2c-0.2,0.1-0.3,0.2-0.3,0.2c0,0-0.1,0.1-0.2,0.1
		c-0.1,0-0.2,0.1-0.2,0.1s-0.1,0.1-0.2,0.1c-0.1,0-0.2,0.1-0.2,0.1c0,0-0.1,0.1-0.2,0.1c-0.1,0-0.2,0.1-0.2,0.1c0,0-0.1,0.1-0.2,0.1
		c-0.1,0-0.2,0.1-0.2,0.1s-0.2,0.1-0.3,0.1C17.2,82.9,17,83,17,83c-0.1,0.1-3.2,0.1-3.3,0c0,0-0.2-0.1-0.4-0.1
		c-0.2,0-0.3-0.1-0.3-0.1c0,0-0.1-0.1-0.3-0.1c-0.2,0-0.3-0.1-0.3-0.1c0,0-0.1-0.1-0.2-0.1c-0.1,0-0.2-0.1-0.2-0.1s-0.1-0.1-0.2-0.1
		c-0.1,0-0.2-0.1-0.2-0.1c0,0-0.1-0.1-0.1-0.1c-0.1,0-0.2-0.1-0.2-0.1c0-0.1-0.2-0.2-0.3-0.2c-0.1,0-0.1-0.1-0.1-0.1c0,0,0,0-0.1,0
		s-0.1,0-0.2-0.1c-0.1-0.1-0.1-0.1-0.2-0.1c0,0-0.1,0-0.1,0c0,0-0.1-0.1-0.2-0.2c-0.2-0.2-1-1-1-1c0,0-0.1-0.1-0.2-0.2
		C9,80.1,8.9,80,8.9,80c0,0,0-0.1-0.1-0.1s-0.1-0.1-0.1-0.1c0-0.1-0.1-0.1-0.1-0.2c0,0-0.1-0.1-0.1-0.1c0,0,0-0.1,0-0.1
		s-0.1-0.1-0.1-0.2c0-0.1-0.1-0.2-0.1-0.2c0,0-0.1-0.1-0.1-0.2c0-0.1-0.1-0.2-0.1-0.2c0,0,0,0,0-0.1c0-0.1,0-0.1-0.1-0.2
		c0-0.1-0.1-0.2-0.1-0.3c0-0.1-0.1-0.2-0.1-0.2c0,0-0.1-0.1-0.1-0.3c0-0.1-0.1-0.3-0.1-0.3c0,0-0.1-0.2-0.1-0.3l0-0.3h4.2
		c2.8,0,4.2,0,4.2-0.1s1.7-0.1,5.1-0.1h5.1v-0.3c0-0.2,0-0.3,0-0.3c0,0-0.1-0.3-0.1-0.7c0-0.4-0.1-0.7-0.1-0.7c0,0-0.1-0.2-0.1-0.3
		c0-0.1,0-0.2-0.1-0.2c0,0-0.1-0.2-0.1-0.4c0-0.2-0.1-0.4-0.1-0.4s-0.1-0.1-0.1-0.3c0-0.1-0.1-0.3-0.1-0.3c0,0-0.1-0.1-0.1-0.2
		c0-0.1-0.1-0.2-0.1-0.2c0,0-0.1-0.1-0.1-0.2c0-0.1-0.1-0.2-0.1-0.2c0,0-0.1-0.1-0.1-0.2c0-0.1-0.1-0.2-0.1-0.2c0,0-0.1-0.1-0.1-0.2
		c0-0.1-0.1-0.2-0.1-0.2s-0.1-0.1-0.1-0.2c0-0.1-0.1-0.2-0.1-0.2s-0.1-0.1-0.1-0.2c0-0.1-0.1-0.2-0.1-0.2c0,0-0.1-0.1-0.2-0.3
		c-0.1-0.2-0.2-0.3-0.2-0.3c0,0,0,0,0-0.1c0,0,0-0.1,0-0.1c-0.1,0-0.3-0.4-0.3-0.4c0,0-0.1-0.1-0.1-0.2c-0.1-0.1-0.1-0.2-0.2-0.2
		c0-0.1-0.1-0.1-0.1-0.1c0,0-0.1,0-0.1-0.1c0-0.1-0.1-0.2-0.2-0.3c-0.1-0.1-0.3-0.3-1.1-1.1c-0.2-0.2-0.3-0.3-0.4-0.3
		c0,0-0.1-0.1-0.2-0.1c-0.1-0.1-0.4-0.4-0.5-0.4c0,0-0.1,0-0.1-0.1c0,0-0.1-0.1-0.1-0.1c-0.1,0-0.1,0-0.1-0.1c0,0-0.1-0.1-0.1-0.1
		s-0.1,0-0.1-0.1s-0.1-0.1-0.1-0.1c-0.1,0-0.1-0.1-0.1-0.1c0,0-0.1-0.1-0.2-0.1c-0.1,0-0.2-0.1-0.2-0.1c0,0-0.1-0.1-0.2-0.1
		c-0.1,0-0.2-0.1-0.2-0.1s-0.1-0.1-0.2-0.1c-0.1,0-0.2-0.1-0.2-0.1c0,0-0.1-0.1-0.2-0.1c-0.1,0-0.2-0.1-0.2-0.1s-0.1-0.1-0.2-0.1
		s-0.2-0.1-0.2-0.1c0,0-0.1-0.1-0.1-0.1c-0.1,0-0.1,0-0.2,0c0,0-0.2-0.1-0.3-0.1c-0.1,0-0.3-0.1-0.3-0.1c0,0-0.2-0.1-0.3-0.1
		c-0.2,0-0.3-0.1-0.4-0.1c0,0-0.3-0.1-0.6-0.1c-0.3,0-0.6-0.1-0.6-0.1s-0.6,0-1.4,0c-0.7,0-1.4,0-1.4,0s-0.3,0.1-0.6,0.1
		c-0.3,0-0.6,0.1-0.6,0.1c0,0-0.2,0.1-0.4,0.1c-0.5,0.1-1,0.2-1,0.2c0,0-0.1,0-0.1,0s-0.1,0-0.1,0c0,0-0.1,0.1-0.2,0.1
		c-0.1,0-0.2,0.1-0.2,0.1s-0.1,0.1-0.2,0.1c-0.1,0-0.2,0.1-0.2,0.1S9.1,65.6,9,65.6s-0.2,0.1-0.2,0.1s-0.1,0.1-0.2,0.1
		c-0.1,0-0.2,0.1-0.2,0.1c0,0-0.1,0.1-0.2,0.1c-0.1,0-0.2,0.1-0.2,0.1S8.2,66,8.1,66.1c-0.1,0-0.2,0.1-0.2,0.1s-0.1,0.1-0.1,0.1
		c-0.1,0-0.1,0.1-0.2,0.1c0,0-0.1,0.1-0.1,0.1c0,0-0.1,0-0.1,0c0,0-0.1,0.1-0.2,0.2C7.1,66.7,7,66.8,7,66.8c0,0,0,0-0.1,0
		c0,0-0.1,0.1-0.2,0.2c-0.1,0.1-0.2,0.2-0.2,0.2c-0.1,0-1.4,1.4-1.4,1.5c0,0,0,0.1,0,0.1c0,0-0.1,0.1-0.2,0.2s-0.2,0.2-0.2,0.2
		c0,0,0,0,0,0.1c0,0,0,0.1-0.1,0.1c0,0-0.1,0.1-0.1,0.2c0,0.1-0.1,0.1-0.1,0.1s-0.1,0.1-0.1,0.2c0,0.1-0.1,0.2-0.1,0.2
		s-0.1,0.1-0.1,0.2c0,0.1-0.1,0.2-0.1,0.2S4,70.4,4,70.5c0,0.1-0.1,0.2-0.1,0.2c0,0-0.1,0-0.1,0.1c0,0,0,0.1,0,0.1
		c0,0-0.1,0.2-0.2,0.4c-0.1,0.2-0.1,0.4-0.2,0.4c0,0-0.1,0.1-0.1,0.3C3.4,72,3.3,72,3.3,72c0,0-0.1,0.1-0.1,0.3
		c0,0.2-0.1,0.3-0.1,0.3c0,0-0.1,0.2-0.1,0.3C3,73.1,3,73.3,3,73.3c0,0-0.1,0.2-0.1,0.4c0,0.2-0.1,0.4-0.1,0.4
		c-0.1,0.1-0.1,3.2,0,3.3c0,0,0.1,0.2,0.1,0.5c0,0.2,0.1,0.4,0.1,0.4s0.1,0.1,0.1,0.3c0,0.2,0.1,0.3,0.1,0.3c0,0,0.1,0.1,0.1,0.2
		c0,0.1,0.1,0.2,0.1,0.2c0,0,0.1,0.1,0.1,0.2c0,0.1,0.1,0.2,0.1,0.2c0,0,0.1,0.1,0.1,0.2c0,0.1,0.1,0.2,0.1,0.2c0,0,0.1,0.1,0.1,0.2
		c0,0.2,0.1,0.3,0.2,0.5C4,81,4,81,4,81.1c0,0,0,0.1,0.1,0.1c0,0,0.1,0.1,0.1,0.2c0,0.1,0.1,0.2,0.1,0.2c0,0,0.1,0.1,0.1,0.1
		c0,0,0,0.1,0.1,0.1s0.1,0,0.1,0.1c0,0,0,0.1,0.1,0.2s0.1,0.1,0.1,0.2c0,0,0,0.1,0.1,0.1c0,0,0.1,0.1,0.1,0.1s0.1,0.2,0.2,0.3
		c0.3,0.3,1.3,1.3,1.3,1.3c0,0,0.1,0,0.1,0.1c0.1,0.1,0.6,0.5,0.7,0.5c0,0,0.1,0,0.1,0.1c0,0,0.1,0.1,0.1,0.1c0.1,0,0.1,0.1,0.2,0.1
		c0,0,0.1,0.1,0.1,0.1c0,0,0.1,0,0.1,0.1c0,0,0.1,0.1,0.1,0.1S7.9,85,7.9,85c0,0.1,0.2,0.2,0.4,0.2c0.1,0,0.1,0.1,0.1,0.1
		c0,0,0,0,0.1,0c0,0,0.2,0,0.3,0.1c0.1,0.1,0.3,0.1,0.3,0.1c0.1,0,0.1,0,0.1,0c0,0,0.3,0.2,0.3,0.2c0,0,0.2,0,0.3,0.1
		c0.1,0.1,0.3,0.1,0.3,0.1c0.1,0,0.1,0,0.1,0.1s0.1,0.1,0.3,0.1c0.2,0,0.3,0.1,0.3,0.1s0.1,0.1,0.3,0.1c0.2,0,0.3,0.1,0.3,0.1
		c0,0,0.2,0.1,0.4,0.1c0.2,0,0.4,0.1,0.5,0.1c0,0,0.4,0.1,0.8,0.1c0.4,0,0.7,0.1,0.7,0.1c0,0.1,2.1,0.1,2.1,0c0,0,0.4-0.1,0.7-0.1
		s0.7-0.1,0.7-0.1c0,0,0.2-0.1,0.4-0.1c0.2,0,0.4-0.1,0.4-0.1c0,0,0.1-0.1,0.3-0.1c0.2,0,0.3-0.1,0.3-0.1c0,0,0.1-0.1,0.3-0.1
		c0.1,0,0.3-0.1,0.3-0.1s0.1-0.1,0.3-0.1C20,86,20,86,20,86c0,0,0.1-0.1,0.3-0.1c0.2-0.1,0.3-0.1,0.3-0.1c0,0,0.1-0.1,0.2-0.1
		s0.2-0.1,0.3-0.1c0.1,0,0.2-0.1,0.2-0.1c0,0,0.1,0,0.1-0.1s0.1-0.1,0.2-0.1c0.1,0,0.2-0.1,0.2-0.1s0.1-0.1,0.2-0.1
		c0.1,0,0.2-0.1,0.2-0.1c0,0,0.1-0.1,0.1-0.1c0,0,0.1,0,0.1-0.1c0,0,0-0.1,0.1-0.1c0.1,0,0.1,0,0.1-0.1c0,0,0.1-0.1,0.1-0.1
		c0.1,0,0.9-0.5,0.9-0.6c0,0,0,0,0.1,0s0.1-0.1,0.2-0.1c0.1-0.1,0.2-0.1,0.2-0.1s0.1-0.1,0.2-0.2c0.1-0.1,0.2-0.2,0.2-0.2
		c0,0,0.2-0.1,0.3-0.2l0.2-0.2h1.4h1.4l0.2,0.2c0.1,0.1,0.2,0.2,0.3,0.2c0,0,0.1,0,0.1,0.1c0,0,0.1,0.1,0.2,0.2
		c0.1,0.1,0.2,0.2,0.2,0.2c0,0,0.1,0.1,0.1,0.1c0.1,0,0.1,0,0.1,0.1c0,0.1,0.1,0.1,0.2,0.1c0.1,0,0.1,0.1,0.2,0.1
		c0,0,0.1,0.1,0.1,0.1s0.1,0,0.1,0.1c0,0,0.1,0.1,0.1,0.1c0.1,0,0.1,0.1,0.1,0.1c0,0.1,0.2,0.2,0.5,0.3c0.2,0.1,0.3,0.2,0.3,0.2
		c0,0,0.1,0.1,0.2,0.1c0.1,0,0.2,0.1,0.2,0.1s0,0,0.1,0c0,0,0.2,0,0.3,0.1c0.1,0.1,0.3,0.1,0.3,0.1s0.1,0,0.1,0c0,0,0.1,0.1,0.2,0.1
		c0.1,0,0.2,0.1,0.2,0.1c0,0,0.1,0,0.1,0c0.1,0,0.1,0,0.1,0c0,0.1,0.7,0.3,0.8,0.3c0.1,0,0.1,0,0.1,0.1c0,0,0.1,0.1,0.3,0.1
		c0.1,0,0.3,0.1,0.3,0.1c0,0,0.2,0.1,0.4,0.1c0.2,0,0.3,0.1,0.4,0.1c0,0,0.3,0.1,0.6,0.1c0.3,0,0.6,0.1,0.6,0.1
		c0.1,0.1,4.5,0.1,4.5,0c0,0,0.2-0.1,0.5-0.1c0.2,0,0.4-0.1,0.5-0.1c0,0,0.2-0.1,0.3-0.1c0.2,0,0.3-0.1,0.3-0.1c0,0,0.1-0.1,0.3-0.1
		c0.1,0,0.3-0.1,0.3-0.1c0,0,0.1-0.1,0.2-0.1c0.1,0,0.2-0.1,0.2-0.1c0,0,0-0.1,0.1-0.1c0.1,0,0.5-0.2,0.5-0.2c0,0,0.1-0.1,0.2-0.1
		c0.1,0,0.2-0.1,0.2-0.1s0.1-0.1,0.2-0.1c0.1,0,0.2-0.1,0.2-0.1c0,0,0.1-0.1,0.2-0.1c0.1,0,0.2-0.1,0.2-0.1s0.1-0.1,0.1-0.1
		c0.1-0.1,0.3-0.2,0.4-0.2c0,0,0.1-0.1,0.2-0.2c0.1-0.1,0.2-0.2,0.2-0.2c0,0,0,0,0.1,0c0.1,0,1.2-1.1,1.2-1.2c0,0,0-0.1,0.1-0.1
		C47,83.1,47,83.1,47,83c0,0,0-0.1,0.1-0.1c0,0,0.1-0.1,0.1-0.1c0,0,0-0.1,0.1-0.1c0,0,0.1-0.1,0.1-0.2c0-0.1,0.1-0.2,0.1-0.2
		c0,0,0,0,0-0.1c0,0,0-0.1,0-0.1c0,0,0.1-0.1,0.1-0.2c0-0.1,0.1-0.2,0.1-0.2c0,0,0.1-0.1,0.1-0.2c0-0.1,0.1-0.2,0.1-0.3
		c0,0,0.1-0.2,0.1-0.5c0-0.2,0.1-0.4,0.1-0.4c0.1,0,0.1-1.6,0-1.6c0,0-0.1-0.2-0.1-0.5c0-0.3-0.1-0.5-0.1-0.5c0,0-0.1-0.1-0.1-0.2
		c0-0.1-0.1-0.2-0.1-0.2c0,0-0.1,0-0.1-0.1s-0.1-0.1-0.1-0.2c-0.1-0.1-0.1-0.2-0.1-0.2c0,0,0-0.1-0.1-0.1c0,0-0.1-0.1-0.1-0.1
		s-0.1-0.2-0.2-0.3c-0.1-0.1-0.2-0.2-0.2-0.2c0-0.1-0.2-0.3-0.2-0.3c0,0-0.1-0.1-0.3-0.2c-0.1-0.1-0.2-0.2-0.3-0.2
		c0,0-0.1-0.1-0.2-0.1c-0.1-0.1-0.2-0.2-0.3-0.2c-0.1,0-0.1-0.1-0.1-0.1c0,0-0.1-0.1-0.1-0.1c0,0-0.1,0-0.1,0c0,0-0.1-0.1-0.2-0.1
		c-0.1,0-0.2-0.1-0.2-0.1c0,0,0-0.1-0.1-0.1c0,0-0.2,0-0.3-0.1c-0.1-0.1-0.3-0.1-0.3-0.1s-0.1,0-0.1-0.1c0,0-0.1-0.1-0.2-0.1
		c-0.1,0-0.2-0.1-0.2-0.1c0,0-0.1-0.1-0.2-0.1c-0.1,0-0.2-0.1-0.2-0.1s-0.1-0.1-0.3-0.1c-0.2,0-0.3-0.1-0.3-0.1c0,0-0.1-0.1-0.3-0.1
		c-0.2,0-0.3-0.1-0.3-0.1s-0.2-0.1-0.4-0.1c-0.2,0-0.4-0.1-0.4-0.1c0,0-0.1,0-0.2,0c-0.1,0-0.2,0-0.3-0.1c-0.1-0.1-0.5-0.1-1.6-0.2
		c-0.3,0-0.6-0.1-0.6-0.1c0,0-0.3-0.1-0.6-0.1c-0.3,0-0.6-0.1-0.6-0.1c0,0-0.3-0.1-0.7-0.1c-0.4,0-0.6-0.1-0.6-0.1
		c0,0-0.2-0.1-0.5-0.1c-0.3,0-0.5-0.1-0.5-0.1c0,0-0.2-0.1-0.4-0.1c-0.2,0-0.4-0.1-0.4-0.1c0,0-0.1-0.1-0.3-0.1
		c-0.1,0-0.3-0.1-0.3-0.1c0,0-0.1-0.1-0.2-0.1c-0.1,0-0.2-0.1-0.2-0.1c0,0-0.1-0.1-0.2-0.1c-0.1,0-0.2-0.1-0.2-0.1
		c0,0-0.1-0.1-0.1-0.1c-0.1,0-0.1-0.1-0.1-0.1s0-0.1-0.1-0.1c-0.1,0-0.5-0.4-0.6-0.7c-0.1-0.3-0.2-1.3,0-1.3c0,0,0.1,0,0.1-0.1
		c0-0.1,0.6-0.6,0.6-0.6c0,0,0.1,0,0.1,0c0,0,0.2-0.1,0.4-0.2c0.2-0.1,0.4-0.2,0.4-0.2c0,0,0.1-0.1,0.2-0.1c0.1,0,0.1-0.1,0.1-0.1
		c0,0,0.1-0.1,0.2-0.1c0.1,0,0.2-0.1,0.2-0.1c0,0,0.1-0.1,0.3-0.1c0.2,0,0.3-0.1,0.4-0.1c0.1-0.1,2.9-0.1,3,0c0,0,0.2,0.1,0.4,0.1
		c0.2,0,0.4,0.1,0.4,0.1c0,0,0.1,0.1,0.2,0.1c0.1,0,0.2,0.1,0.2,0.1c0,0,0.1,0.1,0.2,0.1c0.1,0,0.2,0.1,0.2,0.1c0,0,0,0.1,0.1,0.1
		s0.2,0.1,0.4,0.2c0.2,0.1,0.4,0.2,0.4,0.2c0,0,0.1,0,0.1,0c0,0,0.1,0.1,0.2,0.1c0.1,0,0.2,0.1,0.2,0.1c0,0,0,0,0.1,0
		c0,0,0.1,0,0.1,0.1c0,0,0.1,0.1,0.1,0.1c0.1,0,0.8,0.7,1.3,1.2c0.5,0.6,0.5,0.6,0.5-1.2V68h3.8h3.8v13.8v13.8h2.2h2.2v-4.4
		c0-2.9,0-4.4-0.1-4.4c0,0-0.1-0.5-0.1-1.5c0-0.8,0-1.5,0-1.5c0,0,0.2,0.2,0.5,0.5c0.3,0.3,0.5,0.5,0.5,0.5c0,0,0.1,0.1,0.2,0.1
		c0.1,0.1,0.2,0.1,0.2,0.1c0,0,0.1,0,0.1,0.1c0,0,0.1,0.1,0.1,0.1c0,0,0.1,0,0.1,0.1c0.1,0.1,0.3,0.2,0.4,0.3c0.1,0,0.1,0.1,0.1,0.1
		c0,0,0.1,0.1,0.2,0.1c0.1,0,0.2,0.1,0.2,0.1c0,0,0,0,0.1,0c0,0,0.1,0,0.1,0.1s0,0.1,0.1,0.1c0,0,0.2,0,0.3,0.1
		c0.1,0.1,0.3,0.1,0.3,0.1c0.1,0,0.1,0,0.1,0.1c0,0,0.1,0.1,0.2,0.1c0.1,0,0.2,0,0.2,0.1c0,0,0.1,0.1,0.3,0.1c0.2,0,0.3,0.1,0.3,0.1
		s0.2,0.1,0.5,0.1c0.2,0,0.4,0.1,0.5,0.1c0.1,0.1,3,0.1,3.1,0c0,0,0.2-0.1,0.5-0.1c0.3,0,0.5-0.1,0.5-0.1c0,0,0.2-0.1,0.4-0.1
		c0.2,0,0.3-0.1,0.3-0.1c0,0,0.1-0.1,0.3-0.1c0.1,0,0.3-0.1,0.3-0.1s0.1-0.1,0.2-0.1c0.1,0,0.3-0.1,0.3-0.1c0,0,0.1-0.1,0.2-0.1
		c0.1,0,0.2-0.1,0.2-0.1c0,0,0.1-0.1,0.1-0.1c0.1,0,0.1,0,0.1,0c0,0,0.1-0.1,0.2-0.1c0.1,0,0.2-0.1,0.2-0.1c0,0,0.1-0.1,0.2-0.1
		c0.1,0,0.2-0.1,0.2-0.1c0,0,0.1-0.1,0.2-0.1c0.1,0,0.2-0.1,0.2-0.1s0.1-0.1,0.2-0.1c0.1,0,0.2-0.1,0.2-0.1c0,0,0.1-0.1,0.1-0.1
		c0.1,0,0.1-0.1,0.2-0.1c0,0,0.1-0.1,0.1-0.1c0,0,0.1,0,0.1,0c0,0,0.1-0.1,0.2-0.2s0.2-0.2,0.2-0.2s0,0,0.1,0c0.1,0,0.2-0.1,0.8-0.7
		c0.5-0.5,0.7-0.8,0.7-0.8c0,0,0-0.1,0.1-0.1c0.1-0.1,0.1-0.1,0.1-0.2s0-0.1,0.1-0.1c0.1,0,0.1-0.1,0.1-0.1s0-0.1,0.1-0.1
		c0,0,0.1-0.1,0.1-0.2c0-0.1,0.1-0.1,0.1-0.1c0,0,0.1-0.1,0.1-0.2c0-0.1,0.1-0.2,0.1-0.2c0,0,0.1-0.1,0.1-0.2c0-0.1,0.1-0.2,0.1-0.2
		s0.1-0.1,0.1-0.2c0-0.1,0.1-0.2,0.1-0.2c0,0,0.1-0.1,0.1-0.2c0-0.1,0.1-0.2,0.1-0.2c0,0,0.1-0.1,0.1-0.2c0-0.1,0.1-0.2,0.1-0.2
		c0,0,0.1-0.1,0.1-0.2c0-0.1,0.1-0.3,0.1-0.3c0,0,0.1-0.2,0.1-0.4c0-0.2,0.1-0.3,0.1-0.3s0-0.1,0-0.2c0-0.1,0-0.2,0-0.2
		c0,0,0.1-0.2,0.1-0.4c0-0.2,0.1-0.5,0.1-0.5c0.1-0.1,0.1-4.1,0-4.2c0,0-0.1-0.3-0.1-0.5c0-0.2-0.1-0.4-0.1-0.4c0,0-0.1-0.1-0.1-0.2
		c0-0.1,0-0.2,0-0.2c0,0-0.1-0.1-0.1-0.3c0-0.1-0.1-0.3-0.1-0.3c0,0-0.1-0.1-0.1-0.2c0-0.1-0.1-0.2-0.1-0.2c0,0-0.1-0.1-0.1-0.2
		c0-0.1-0.1-0.2-0.1-0.2c0,0-0.1-0.1-0.1-0.2c0-0.1-0.1-0.2-0.1-0.2c0,0-0.1-0.1-0.1-0.2c0-0.1-0.1-0.2-0.1-0.2c0,0-0.1-0.1-0.1-0.1
		c0-0.1-0.1-0.1-0.1-0.1c0,0-0.1-0.1-0.1-0.2c0-0.1-0.1-0.2-0.1-0.2c0,0,0,0,0-0.1c0,0,0-0.1-0.1-0.1c0,0-0.1-0.1-0.1-0.2
		c0-0.1-0.1-0.1-0.1-0.1c0,0-0.1,0-0.1-0.1c0,0,0-0.1-0.1-0.1c0,0-0.1-0.1-0.1-0.1c-0.1-0.2-0.2-0.3-0.3-0.5
		c-0.1-0.1-0.1-0.1-0.1-0.1c0,0,1.1,0,2.5,0h2.5v9.4v9.4l0.5,0c0.3,0,1.3,0,2.2,0h1.7v-5.5c0-3.1,0-5.5,0-5.5c0,0,0.1-0.5,0.1-1.2
		c0-0.7,0.1-1.2,0.1-1.2c0,0,0.1-0.2,0.1-0.4c0-0.2,0.1-0.4,0.1-0.4c0,0,0.1-0.2,0.1-0.3c0-0.2,0.1-0.3,0.1-0.3c0,0,0.1-0.1,0.1-0.2
		c0-0.1,0.1-0.2,0.1-0.2s0.1-0.1,0.1-0.2s0.1-0.2,0.1-0.2s0.1-0.1,0.1-0.2c0-0.1,0.1-0.2,0.1-0.2c0,0,0.1-0.1,0.1-0.2
		c0.1-0.1,0.1-0.2,0.2-0.3c0,0,0.1-0.1,0.1-0.1c0,0,0.1-0.1,0.2-0.2c0.1-0.1,0.2-0.2,0.2-0.2c0-0.1,0.5-0.5,0.5-0.5
		c0,0,0.1-0.1,0.2-0.2c0.1-0.1,0.2-0.2,0.3-0.2c0.1,0,0.1-0.1,0.1-0.1c0,0,0-0.1,0.1-0.1c0,0,0.1,0,0.1,0c0,0,0.1-0.1,0.2-0.1
		c0.1,0,0.2-0.1,0.2-0.1s0.1-0.1,0.2-0.1c0.1,0,0.2-0.1,0.2-0.1s0.1-0.1,0.2-0.1c0.1,0,0.2-0.1,0.2-0.1c0,0,0.1-0.1,0.3-0.1
		c0.2,0,0.3-0.1,0.3-0.1c0,0,0.9,0,2.1,0h2.1v-1.8v-1.8h-1.8c-1.1,0-1.9,0-1.9,0.1c-0.1,0-0.3,0.1-0.5,0.1c-0.2,0-0.4,0.1-0.4,0.1
		c0,0-0.1,0.1-0.3,0.1c-0.1,0-0.3,0.1-0.3,0.1c0,0-0.1,0.1-0.2,0.1c-0.2,0-0.8,0.3-0.8,0.4c0,0-0.1,0.1-0.2,0.1
		c-0.1,0-0.2,0.1-0.2,0.1c0,0-0.1,0.1-0.1,0.1c0,0-0.1,0-0.1,0.1c0,0-0.1,0.1-0.1,0.1s-0.1,0.1-0.2,0.1c-0.1,0.1-0.1,0.1-0.2,0.1
		c-0.1,0-1.1,1-1.1,1.1c0,0-0.1,0.1-0.2,0.2c-0.1,0.1-0.2,0.2-0.2,0.2c0,0,0,0.1-0.1,0.1c-0.1,0.1-0.1,0.1-0.1,0.2
		c0,0,0,0.1-0.1,0.1c0,0-0.1,0.1-0.1,0.1c0,0,0,0.1-0.1,0.1s-0.1,0.1-0.1,0.1c0,0.1-0.1,0.1-0.1,0.1c0,0-0.1,0.1-0.2,0.2
		c-0.1,0.1-0.1,0.2-0.2,0.2c0,0-0.1,0.1-0.1,0.2c-0.1,0.2-0.1,0.2-0.1,0.1c0-0.1,0-0.1-0.1-0.1c0,0-0.1-0.9-0.1-2.2v-2.2h-7.5
		C66.7,64.4,63.6,64.4,63.6,64.4 M15.1,68c0,0,0.3,0.1,0.6,0.1c0.3,0,0.6,0.1,0.6,0.1c0,0,0.1,0.1,0.3,0.1c0.1,0,0.3,0.1,0.3,0.1
		c0,0,0.1,0.1,0.2,0.1c0.1,0,0.2,0.1,0.2,0.1c0,0,0.1,0.1,0.1,0.1c0.1,0,0.2,0.1,0.2,0.1c0,0,0.2,0.1,0.4,0.2
		c0.2,0.1,0.4,0.2,0.4,0.2s0,0,0.1,0c0,0,0.1,0,0.2,0.1c0.1,0.1,0.1,0.1,0.1,0.1c0.1,0,1.2,1.1,1.3,1.3c0.1,0.1,0.2,0.2,0.3,0.4
		c0,0,0.1,0.1,0.1,0.2c0,0.1,0.1,0.1,0.1,0.1c0,0,0.1,0,0.1,0.1c0,0,0,0.1,0.1,0.1c0,0,0.1,0,0.1,0.1s0,0.1,0.1,0.1
		c0,0,0.1,0.1,0.1,0.2c0,0.1,0.1,0.2,0.1,0.2c0,0,0.1,0.1,0.1,0.2c0,0.1,0.1,0.2,0.1,0.2c0,0,0.1,0.1,0.1,0.2c0,0.1,0.1,0.2,0.1,0.2
		c0,0,0.1,0.1,0.1,0.2c0,0.1,0.1,0.2,0.1,0.2c0,0,0.1,0.1,0.1,0.1v0.1H16c-3.6,0-5.5,0-5.5,0.1c0,0-0.5,0.1-1.3,0.1
		c-0.7,0-1.3,0-1.3,0c0,0,0.1-0.2,0.1-0.4S8,73,8,73s0.1-0.1,0.1-0.2c0-0.1,0.1-0.3,0.1-0.3c0,0,0.1-0.1,0.1-0.1
		c0-0.1,0-0.2,0.1-0.2c0-0.1,0.1-0.2,0.1-0.3c0-0.1,0.1-0.2,0.1-0.2c0,0,0.1-0.1,0.1-0.2c0-0.1,0.1-0.2,0.1-0.2s0,0,0-0.1
		c0-0.1,0.2-0.4,0.3-0.4c0,0,0-0.1,0.1-0.1c0,0,0.1-0.1,0.1-0.2c0.1-0.1,1.1-1.2,1.2-1.2c0,0,0.1-0.1,0.2-0.1
		c0.2-0.2,0.3-0.2,0.6-0.4c0.1-0.1,0.3-0.1,0.3-0.2s0.1-0.1,0.2-0.1c0.1,0,0.2-0.1,0.2-0.1c0,0,0.1-0.1,0.2-0.1
		c0.1,0,0.2-0.1,0.2-0.1c0,0,0.1-0.1,0.3-0.1c0.1,0,0.3-0.1,0.3-0.1c0,0,0.3-0.1,0.5-0.1c0.3,0,0.5-0.1,0.5-0.1
		C13.8,68,15,68,15.1,68 M62.2,68.4c0,0,0.2,0.1,0.4,0.1c0.2,0,0.4,0.1,0.4,0.1c0,0,0.2,0.1,0.3,0.1c0.1,0,0.3,0.1,0.3,0.1
		c0,0,0.1,0,0.1,0c0.1,0,0.1,0,0.1,0c0,0,0.1,0.1,0.2,0.1c0.1,0,0.2,0.1,0.2,0.1s0.1,0.1,0.2,0.1c0.1,0,0.2,0.1,0.2,0.1
		c0,0,0.1,0.1,0.2,0.1c0.1,0,0.2,0.1,0.2,0.1c0,0,0.1,0.1,0.1,0.1c0,0,0.1,0,0.1,0.1c0,0,0.1,0.1,0.1,0.1c0.1,0,0.2,0.1,0.2,0.2
		c0.1,0.1,0.1,0.1,0.2,0.1c0.1,0,1.2,1.1,1.2,1.2c0,0,0.1,0.1,0.1,0.2c0.1,0.1,0.1,0.2,0.1,0.2c0,0,0,0.1,0.1,0.1
		c0,0,0.1,0.1,0.1,0.1c0,0.1,0.1,0.1,0.1,0.1c0,0,0,0,0,0.1c0,0,0,0.1,0.1,0.1c0,0,0.1,0.1,0.1,0.2c0,0.1,0.1,0.2,0.1,0.2
		c0,0,0.1,0.1,0.1,0.2c0,0.1,0.1,0.2,0.1,0.2c0,0,0.1,0.1,0.1,0.2c0,0.1,0.1,0.2,0.1,0.2c0,0,0.1,0.1,0.1,0.3c0,0.1,0.1,0.2,0.1,0.2
		c0,0,0.1,0.1,0.1,0.3c0,0.2,0.1,0.3,0.1,0.4c0.1,0.1,0.1,2.5,0,2.6c0,0-0.1,0.2-0.1,0.4c0,0.2-0.1,0.3-0.1,0.3c0,0-0.1,0.1-0.1,0.2
		c0,0.1-0.1,0.2-0.1,0.2c0,0-0.1,0.1-0.1,0.2c0,0.1-0.1,0.2-0.1,0.2c0,0-0.1,0.1-0.1,0.2c0,0.1-0.1,0.2-0.1,0.2c0,0-0.1,0.1-0.1,0.1
		c0,0.1-0.1,0.1-0.1,0.1c0,0-0.1,0.1-0.1,0.2c0,0.1-0.1,0.2-0.1,0.2c0,0-0.1,0.1-0.1,0.1c0,0,0,0.1,0,0.1c-0.1,0-0.4,0.5-0.4,0.5
		c0,0.1-1.1,1.2-1.2,1.2c0,0-0.1,0-0.1,0.1c-0.1,0.1-0.1,0.1-0.2,0.1c0,0-0.1,0-0.1,0c0,0.1-0.4,0.3-0.4,0.3c0,0-0.1,0-0.1,0.1
		c0,0,0,0.1-0.1,0.1c0,0-0.1,0-0.1,0s-0.1,0.1-0.2,0.1c-0.1,0-0.2,0.1-0.2,0.1c0,0-0.1,0.1-0.2,0.1c-0.1,0-0.2,0.1-0.2,0.1
		c0,0-0.1,0.1-0.3,0.1c-0.1,0-0.2,0-0.2,0.1c0,0-0.1,0.1-0.3,0.1c-0.2,0-0.3,0.1-0.3,0.1c-0.1,0.1-2.5,0.1-2.5,0
		c0,0-0.2-0.1-0.4-0.1c-0.2,0-0.3-0.1-0.3-0.1c0,0-0.1-0.1-0.3-0.1c-0.1,0-0.3-0.1-0.3-0.1c0,0-0.1-0.1-0.2-0.1
		c-0.1,0-0.2-0.1-0.2-0.1s-0.1-0.1-0.2-0.1c-0.1,0-0.2-0.1-0.2-0.1s0,0-0.1,0c0,0-0.1,0-0.1,0s0-0.1-0.1-0.1c-0.1,0-0.5-0.2-0.6-0.4
		c0,0-0.1-0.1-0.1-0.1c0,0-0.1-0.1-0.2-0.2c-0.1-0.1-0.2-0.2-0.2-0.2c-0.1,0-0.5-0.4-0.5-0.5c0,0-0.1-0.1-0.2-0.3
		c-0.1-0.1-0.2-0.2-0.2-0.3s-0.1-0.1-0.2-0.2c-0.1-0.1-0.2-0.2-0.2-0.3c0,0,0-0.1-0.1-0.1s-0.1-0.1-0.1-0.1c0-0.1-0.1-0.1-0.1-0.1
		c0,0-0.1-0.1-0.1-0.2c0-0.1-0.1-0.2-0.1-0.2c0,0-0.1-0.1-0.1-0.2c0-0.1-0.1-0.2-0.1-0.2S55,78.6,55,78.5c0-0.1-0.1-0.2-0.1-0.2
		c0,0-0.1-0.1-0.1-0.2c0-0.1-0.1-0.2-0.1-0.2c0,0-0.1-0.2-0.1-0.3c0-0.1-0.1-0.3-0.1-0.3c-0.1-0.1-0.1-2.9,0-2.9
		c0,0,0.1-0.2,0.1-0.4c0-0.2,0.1-0.3,0.1-0.3s0.1-0.1,0.1-0.2c0-0.1,0.1-0.2,0.1-0.3c0,0,0.1-0.1,0.1-0.2c0-0.1,0.1-0.2,0.1-0.2
		c0,0,0.1-0.1,0.1-0.2c0-0.1,0.1-0.2,0.1-0.2c0,0,0.1-0.1,0.1-0.2c0-0.1,0.1-0.2,0.1-0.2s0.1-0.1,0.1-0.2c0-0.1,0.1-0.2,0.1-0.2
		c0,0,0.1-0.1,0.1-0.1c0,0,0.1-0.1,0.1-0.2c0.1-0.1,0.1-0.1,0.1-0.2c0,0,0.1-0.1,0.2-0.2c0.1-0.1,0.2-0.2,0.2-0.2
		c0-0.1,0.7-0.8,0.7-0.8c0,0,0.1-0.1,0.2-0.2c0.1-0.1,0.2-0.2,0.2-0.2c0,0,0.1,0,0.1-0.1c0.3-0.2,0.3-0.3,0.4-0.3c0,0,0.1,0,0.1,0
		c0,0,0.1-0.1,0.1-0.1c0.1,0,0.1-0.1,0.1-0.1c0,0,0.1-0.1,0.2-0.1c0.1,0,0.2-0.1,0.2-0.1s0.1-0.1,0.2-0.1c0.1,0,0.2-0.1,0.2-0.1
		c0,0,0.1-0.1,0.1-0.1c0.1,0,0.1,0,0.1,0c0,0,0.1-0.1,0.2-0.1c0.1,0,0.2-0.1,0.2-0.1c0,0,0.2-0.1,0.4-0.1c0.2,0,0.4-0.1,0.4-0.1
		c0,0,0.4,0,0.8,0C61.9,68.3,62.2,68.3,62.2,68.4 M58.9,90.3c-0.3,0.1-0.5,0.2-0.5,0.2c0,0-0.1,0.1-0.1,0.1c-0.2,0-0.6,0.4-0.6,0.5
		c0,0,0,0.1-0.1,0.1c-0.1,0-0.1,1.3,0,1.4c0,0,0.1,0.1,0.2,0.2c0.1,0.1,0.1,0.1,0.2,0.1c0,0,0.1,0,0.1,0.1c0,0,0,0.1,0.1,0.1
		c0,0,0.1,0,0.2,0.1c0.1,0,0.3,0.1,0.4,0.1c0.1,0,0.2,0.1,0.2,0.1c0,0,0.1,0.1,0.3,0.1c0.2,0,0.3,0.1,0.3,0.1c0,0,0.1,0,0.1,0
		c0.2,0,0.5,0.2,0.7,0.3c0.2,0.2,0.1,0.5-0.2,0.8c-0.1,0.1-1.3,0.2-1.4,0c0,0-0.1-0.1-0.1-0.1c-0.1,0-0.3-0.2-0.3-0.3
		c0,0,0-0.1,0-0.1c0,0-0.1-0.1-0.1-0.3l0-0.3l-0.5,0l-0.5,0l0,0.1c0,0.1,0,0.1,0,0.1c0,0,0.1,0.2,0.1,0.3c0,0.2,0.1,0.3,0.1,0.4
		c0,0,0.1,0,0.1,0.1c0,0,0,0.1,0.1,0.2c0.1,0.1,0.1,0.1,0.1,0.2c0,0,0.1,0.1,0.1,0.1c0.1,0,0.1,0.1,0.1,0.1c0,0.1,0.3,0.2,0.6,0.3
		c0.1,0,0.2,0.1,0.2,0.1c0,0,0.3,0,0.7,0s0.7,0,0.7,0c0,0,0.1-0.1,0.2-0.1c0.1,0,0.2-0.1,0.3-0.1c0,0,0.1-0.1,0.2-0.1
		c0.2,0,0.5-0.4,0.5-0.5c0,0,0-0.1,0.1-0.1c0,0,0.1-0.1,0.1-0.2c0-0.1,0.1-0.2,0.1-0.2s0-0.2,0-0.4c0-0.2,0-0.4-0.1-0.4
		c0,0-0.1-0.1-0.1-0.1c0-0.2-0.2-0.4-0.6-0.7c0,0-0.2-0.1-0.3-0.1c-0.1,0-0.2,0-0.2-0.1s-0.1-0.1-0.3-0.1c-0.1,0-0.3-0.1-0.3-0.1
		c0,0-0.2-0.1-0.3-0.1c-0.1,0-0.3-0.1-0.3-0.1c0,0-0.1-0.1-0.2-0.1c-0.5-0.1-0.7-1-0.2-1c0,0,0.1,0,0.1-0.1c0,0,0.2-0.1,0.5-0.1
		c0.3,0,0.5,0,0.5,0.1c0,0,0.1,0.1,0.1,0.1c0.1,0,0.3,0.2,0.3,0.3c0,0,0,0.1,0.1,0.1s0.1,0.1,0.1,0.2v0.2h0.5h0.5v-0.3
		c0-0.1,0-0.3,0-0.3s-0.1-0.1-0.1-0.2c0-0.1-0.1-0.2-0.1-0.2c0,0-0.1-0.1-0.1-0.2s-0.2-0.2-0.2-0.2c-0.1,0-0.1-0.1-0.1-0.1
		s-0.1-0.1-0.2-0.1c-0.1,0-0.2-0.1-0.2-0.1C60.4,90.4,59.2,90.2,58.9,90.3 M69.2,90.4c0,0-0.1,0.1-0.2,0.1c-0.3,0-0.6,0.3-0.6,0.7
		c0,0.2,0,0.3-0.1,0.3s0,0.1,0,0.2v0.2H68h-0.3v0.4v0.4H68h0.3V93c0,0.2,0,0.4,0.1,0.4c0,0,0.1,0.4,0.1,1.2v1.2h0.5h0.5v-1.5v-1.5
		h0.4H70v-0.4v-0.4h-0.4h-0.4l0-0.3c0-0.4,0-0.3,0.4-0.3l0.3,0v-0.4v-0.4l-0.2,0C69.4,90.4,69.2,90.3,69.2,90.4 M100.2,90.7
		c0,0,0,0.3,0,0.6v0.5h-0.3h-0.3v0.3c0,0.2,0,0.3,0.1,0.3c0,0,0.1,0,0.1,0.1c0,0.1,0.1,0.1,0.3,0.1h0.3v1.3c0,0.8,0,1.3,0.1,1.3
		c0,0,0.1,0.1,0.1,0.1c0,0.1,0.2,0.4,0.4,0.4c0.1,0,0.1,0,0.1,0.1c0,0,0.2,0.1,0.6,0.1h0.6v-0.4v-0.4h-0.3c-0.4,0-0.4,0.1-0.4-1.3
		l0-1h0.4h0.4v-0.4v-0.4h-0.4h-0.4v-0.6v-0.6h-0.5C100.5,90.6,100.3,90.6,100.2,90.7 M123.5,91.2v0.5h-0.3h-0.3v0.4v0.4h0.3h0.3v1.3
		c0,1.6,0,1.7,0.7,1.8c0.2,0,0.3,0.1,0.4,0.1c0,0,0.1,0,0.1,0c0,0,0.2-0.1,0.3-0.1h0.3v-0.4c0-0.4,0-0.4-0.1-0.4
		c-0.1,0-0.1,0-0.1,0.1c0,0.1-0.3,0.1-0.4,0c-0.1-0.1-0.1-0.2-0.1-1.2v-1.1h0.4h0.4v-0.4v-0.4h-0.4h-0.4v-0.5v-0.5H124h-0.5V91.2
		 M104.1,91.7c0,0-0.1,0.1-0.1,0.1c-0.1,0-0.5,0.2-0.6,0.3c-0.1,0.1-0.1,0.1-0.1-0.1v-0.2h-0.5h-0.5v2v1.9h0.5h0.5v-1.1
		c0-0.6,0-1.1,0-1.1c0,0,0.1-0.1,0.1-0.2c0.1-0.4,0.4-0.6,0.8-0.6l0.4,0v-0.4c0-0.4,0-0.4-0.1-0.5C104.5,91.6,104.2,91.6,104.1,91.7
		 M106.3,91.7c0,0-0.1,0.1-0.3,0.1c-0.1,0-0.3,0.1-0.3,0.1c0,0-0.1,0.1-0.2,0.1c-0.2,0.1-0.5,0.4-0.6,0.6c0,0.1-0.1,0.1-0.1,0.1
		c0,0-0.1,0.1-0.1,0.1c0,0.1-0.1,0.2-0.1,0.2c-0.1,0-0.1,1.4,0,1.4c0,0,0.1,0.1,0.1,0.2c0,0.1,0.1,0.2,0.1,0.2c0,0,0.1,0,0.1,0.1
		c0,0,0,0.1,0.1,0.1c0,0,0.1,0.1,0.1,0.1c0,0,0.1,0.1,0.1,0.1c0.1,0,0.1,0.1,0.2,0.1c0,0,0.1,0.1,0.2,0.1c0.1,0,0.2,0.1,0.2,0.1
		c0.1,0.1,1.4,0.1,1.4,0c0,0,0.1-0.1,0.1-0.1c0.1,0,0.2,0,0.2-0.1c0,0,0.1-0.1,0.1-0.1c0.1,0,0.4-0.4,0.4-0.5c0-0.1,0.1-0.1,0.1-0.2
		c0,0,0.1-0.1,0.1-0.3l0-0.2h-0.5c-0.5,0-0.5,0-0.5,0.1c-0.1,0.5-0.9,0.7-1.3,0.3c-0.1-0.1-0.2-0.2-0.2-0.3c0,0,0-0.1,0-0.1
		c0,0-0.1-0.1-0.1-0.2l0-0.2h1.3c1.2,0,1.3,0,1.3-0.1c0,0,0-0.1,0.1-0.1c0,0,0.1-0.1,0.1-0.2c0-0.1,0-0.2,0-0.2c0,0-0.1-0.1-0.1-0.3
		c0-0.3-0.2-0.7-0.3-0.7c0,0-0.1,0-0.1-0.1c0-0.1-0.3-0.4-0.5-0.5c-0.1,0-0.1-0.1-0.2-0.1c0,0-0.2-0.1-0.3-0.1c-0.2,0-0.3,0-0.3-0.1
		c0,0-0.1,0-0.2,0C106.4,91.6,106.3,91.6,106.3,91.7 M110.6,91.7c0,0-0.1,0.1-0.2,0.1c-0.1,0-0.2,0.1-0.3,0.1
		c-0.3,0.2-0.3,0.3-0.3,0.1c0-0.1,0-0.1-0.4-0.1h-0.4v1.9v1.9h0.5h0.5l0-1.3c0-1.2,0-1.3,0.1-1.4c0.1-0.1,0.1-0.1,0.1-0.1
		c0,0,0-0.1,0.1-0.1c0,0,0.1,0,0.1-0.1c0,0,0-0.1,0.1-0.1c0,0,0.1,0,0.1-0.1s0.1-0.1,0.2-0.1c0.1,0,0.2,0,0.2,0.1s0,0.1,0.1,0.1
		c0,0,0.1,0,0.1,0.1c0,0,0,0.1,0.1,0.1c0.1,0.1,0.1,0.2,0.1,1.5l0,1.4h0.5h0.5l0-1.3c0-1,0-1.3,0.1-1.4c0,0,0.1-0.1,0.1-0.1
		c0-0.1,0.2-0.3,0.3-0.3c0,0,0.1,0,0.1-0.1c0.1-0.1,0.4-0.1,0.5,0.1l0.2,0.2l0,1.4l0,1.4h0.5h0.5V94c0-1,0-1.5-0.1-1.5
		c0,0-0.1-0.1-0.1-0.1c0-0.3-0.4-0.6-0.7-0.6c-0.1,0-0.1,0-0.1-0.1c0,0-0.2-0.1-0.4-0.1c-0.2,0-0.4,0-0.4,0.1c0,0-0.1,0.1-0.2,0.1
		c-0.1,0-0.3,0.1-0.5,0.3c-0.1,0.1-0.1,0.1-0.3-0.1c-0.1-0.1-0.2-0.2-0.4-0.2c-0.1,0-0.2-0.1-0.2-0.1s-0.1,0-0.3,0
		C110.7,91.6,110.6,91.6,110.6,91.7 M116.4,91.7c0,0-0.1,0.1-0.2,0.1s-0.2,0.1-0.2,0.1c0,0,0,0.1-0.1,0.1c-0.1,0-0.6,0.5-0.6,0.6
		c0,0,0,0.1-0.1,0.1c0,0-0.1,0.1-0.1,0.2c0,0.1-0.1,0.2-0.1,0.2c-0.1,0.1-0.1,1.4,0,1.4c0,0,0.1,0.1,0.1,0.2c0,0.1,0.1,0.2,0.1,0.2
		c0,0,0.1,0,0.1,0.1c0,0.1,0.4,0.5,0.5,0.5c0,0,0.1,0,0.1,0.1c0,0,0.1,0.1,0.2,0.1s0.1,0,0.1,0.1c0,0,0.3,0.1,0.7,0.1
		c0.4,0,0.7,0,0.7,0s0.1-0.1,0.2-0.1c0.1,0,0.2-0.1,0.2-0.1c0,0,0-0.1,0.1-0.1c0.1,0,0.3-0.2,0.3-0.3c0,0,0-0.1,0.1-0.1
		c0,0,0.1-0.1,0.1-0.1c0-0.1,0.1-0.1,0.1-0.2c0,0,0.1-0.1,0.1-0.3l0-0.2h-0.5c-0.5,0-0.5,0-0.5,0.1c0,0.2-0.2,0.4-0.3,0.4
		c0,0-0.1,0-0.1,0.1c0,0.1-0.7,0.1-0.7,0c0,0-0.1-0.1-0.1-0.1c-0.1,0-0.4-0.3-0.4-0.5c0-0.1,0-0.2-0.1-0.2c0,0,0,0,0-0.1
		c0,0,0.5-0.1,1.4-0.1c1.2,0,1.4,0,1.4-0.1c0,0,0-0.1,0.1-0.1c0,0,0.1-0.1,0.1-0.2c0-0.1,0-0.2,0-0.2c0,0-0.1-0.2-0.1-0.4
		s-0.1-0.4-0.1-0.4c0,0-0.1-0.1-0.1-0.1c-0.1-0.3-0.8-0.8-1.1-0.8c-0.1,0-0.1,0-0.1-0.1c0,0-0.2-0.1-0.4-0.1
		C116.6,91.6,116.4,91.6,116.4,91.7 M120.7,91.7C120.7,91.7,120.7,91.7,120.7,91.7c-0.2,0.1-0.6,0.3-0.6,0.3c0,0,0,0-0.1,0
		c0,0-0.1-0.1-0.1-0.2v-0.2h-0.4h-0.4v1.9v1.9h0.5h0.5l0-1.3c0-1.2,0-1.3,0.1-1.4c0.1-0.1,0.1-0.1,0.1-0.1c0,0,0-0.1,0.1-0.1
		c0,0,0.1,0,0.1-0.1c0,0,0-0.1,0.1-0.1c0,0,0.1,0,0.1-0.1s0.1-0.1,0.2-0.1c0.3,0,0.5,0.2,0.5,0.4c0,0,0,0.1,0.1,0.1
		c0,0,0.1,0.5,0.1,1.4v1.4h0.5h0.5V94c0-0.9,0-1.6,0-1.6c0,0-0.1-0.1-0.1-0.1c0-0.2-0.2-0.4-0.3-0.4c0,0-0.1,0-0.1-0.1
		c0,0-0.1-0.1-0.2-0.1c-0.1,0-0.2-0.1-0.2-0.1c0,0-0.2,0-0.4,0C120.9,91.6,120.7,91.6,120.7,91.7 M71.5,91.7c-0.1,0-0.2,0-0.2,0.1
		c0,0-0.1,0.1-0.1,0.1C71.1,91.9,71,92,71,92c-0.2,0.2-0.4,0.4-0.4,0.4c0,0,0,0.1-0.1,0.1c0,0-0.1,0.1-0.1,0.1c0,0,0,0.1-0.1,0.1
		c0,0-0.1,0.1-0.1,0.2c0,0.1-0.1,0.2-0.1,0.2c-0.1,0-0.1,1.1,0,1.2c0,0,0.1,0.1,0.1,0.2c0,0.1,0.2,0.6,0.3,0.6c0,0,0,0,0,0.1
		c0,0.1,0.2,0.3,0.3,0.3c0,0,0.1,0,0.1,0.1c0,0,0.1,0.1,0.1,0.1c0.1,0,0.1,0.1,0.1,0.1s0.1,0.1,0.3,0.1s0.3,0.1,0.3,0.1
		c0,0.1,0.7,0.1,0.7,0c0,0,0.1-0.1,0.3-0.1c0.2,0,0.3-0.1,0.3-0.1s0-0.1,0.1-0.1c0,0,0.1,0,0.1-0.1c0,0,0.1-0.1,0.1-0.1
		c0.1,0,0.3-0.3,0.4-0.4c0-0.1,0.1-0.1,0.1-0.1c0,0,0.1-0.1,0.1-0.2c0-0.1,0.1-0.2,0.1-0.2s0-0.3,0-0.7c0-0.4,0-0.7,0-0.7
		s-0.1-0.1-0.1-0.2c0-0.1-0.1-0.2-0.1-0.2c0,0-0.1-0.1-0.1-0.1C73.6,92,72.6,91.6,71.5,91.7 M76.2,91.8c0,0-0.1,0-0.1,0.1
		s-0.1,0.1-0.2,0.1c-0.1,0.1-0.2,0.2-0.3,0.2c0,0.1-0.1,0.1-0.1-0.1l0-0.3l-0.5,0l-0.5,0l0,0.9c0,0.6,0,0.9,0,0.9c0,0,0.1,0.4,0.1,1
		v1h0.4h0.4v-0.9c0-0.5,0-0.9,0-0.9s0.1-0.1,0.1-0.3c0-0.2,0.1-0.3,0.1-0.3c0,0,0.1,0,0.1-0.1c0-0.2,0.4-0.4,0.8-0.4h0.3v-0.5v-0.5
		l-0.3,0C76.4,91.7,76.2,91.7,76.2,91.8 M78.6,91.7c-0.1,0-0.5,0.3-0.5,0.4c0,0,0,0-0.1,0c0,0-0.1-0.1-0.1-0.2v-0.2l-0.4,0l-0.4,0
		l0,1.9l0,1.9h0.5h0.5l0-1.3c0-1.2,0-1.3,0.1-1.4c0.1-0.1,0.1-0.1,0.1-0.2c0-0.2,0.7-0.3,0.9-0.1l0.2,0.2l0,1.4l0,1.4h0.5h0.5v-1.3
		c0-0.8,0-1.3,0.1-1.3c0,0,0.1-0.1,0.1-0.2c0-0.1,0.1-0.2,0.2-0.2c0.1,0,0.1-0.1,0.1-0.1c0-0.1,0.4-0.1,0.6,0
		c0.2,0.1,0.2,0.1,0.2,1.7l0,1.4h0.5h0.5v-1.6c0-1,0-1.6-0.1-1.6c0,0-0.1-0.1-0.1-0.1c0-0.1-0.3-0.5-0.4-0.5c0,0-0.1,0-0.1-0.1
		c0,0-0.2-0.1-0.7-0.1c-0.5,0-0.7,0-0.7,0.1c0,0-0.1,0.1-0.1,0.1c0,0-0.1,0.1-0.2,0.2l-0.2,0.2L80,92c-0.1-0.1-0.2-0.2-0.2-0.2
		c0,0-0.1,0-0.1-0.1C79.7,91.7,78.8,91.7,78.6,91.7 M84.4,91.7c-0.1,0-0.1,0-0.1,0.1c0,0-0.1,0.1-0.1,0.1c-0.1,0-0.6,0.5-0.7,0.6
		c0,0.1-0.1,0.1-0.1,0.1c0,0-0.1,0.1-0.1,0.2c0,0.1-0.1,0.2-0.1,0.2c-0.1,0-0.1,1.4,0,1.4c0,0,0.1,0.1,0.1,0.2
		c0,0.1,0.1,0.2,0.1,0.2c0,0,0.1,0.1,0.2,0.2c0.1,0.1,0.2,0.2,0.2,0.2c0.1,0,0.1,0.1,0.1,0.1c0,0,0.1,0.1,0.1,0.1
		c0.1,0,0.2,0.1,0.2,0.1c0.1,0.2,1.9,0,1.9-0.2c0,0,0-0.1,0.1-0.1c0.1,0,0.3-0.3,0.4-0.4c0-0.1,0.1-0.1,0.1-0.1c0,0,0.1-0.1,0.1-0.3
		l0-0.2h-0.5c-0.5,0-0.5,0-0.5,0.1c-0.1,0.3-0.9,0.6-1.2,0.3c0,0-0.1-0.1-0.2-0.1c-0.1,0-0.1-0.1-0.1-0.1c0,0,0-0.1-0.1-0.1
		c0,0-0.1-0.1-0.1-0.3l0-0.3h1.4h1.4v-0.3c0-0.2,0-0.3,0-0.3s-0.1-0.1-0.1-0.3c0-0.1-0.1-0.3-0.1-0.3c0,0-0.1-0.1-0.1-0.2
		c-0.1-0.2-0.5-0.7-0.7-0.7c-0.1,0-0.2-0.1-0.2-0.1C85.7,91.7,84.7,91.7,84.4,91.7 M88.8,91.7c-0.1,0-0.2,0.1-0.3,0.2
		c-0.3,0.3-0.3,0.3-0.3,0v-0.2h-0.4h-0.4v2v1.9h0.5h0.5l0-1.2c0-1.1,0-1.2,0.1-1.3c0.1,0,0.1-0.1,0.1-0.1c0-0.1,0.2-0.3,0.3-0.3
		c0,0,0.1,0,0.1-0.1c0,0,0.2-0.1,0.4-0.1h0.4v-0.5v-0.5l-0.3,0C89.1,91.7,88.9,91.7,88.8,91.7 M92.7,91.7c-0.1,0-0.2,0-0.2,0.1
		c0,0,0,0.1-0.1,0.1c-0.1,0-0.5,0.4-0.5,0.5c0,0,0,0.1-0.1,0.1c0,0-0.1,0.2-0.1,0.3l0,0.3h0.5c0.5,0,0.5,0,0.5-0.1
		c0-0.4,1-0.7,1.3-0.3c0.2,0.2,0.1,0.5-0.1,0.5c0,0-0.1,0-0.1,0c0,0-0.2,0.1-0.5,0.1c-0.3,0-0.5,0.1-0.5,0.1c0,0-0.1,0.1-0.3,0.1
		c-0.1,0-0.3,0.1-0.3,0.1c0,0,0,0.1-0.1,0.1c-0.1,0-0.4,0.3-0.4,0.4c0,0,0,0.1-0.1,0.1c-0.1,0-0.1,1,0,1c0,0,0.1,0.1,0.1,0.1
		c0,0,0.1,0.1,0.2,0.2c0.1,0.1,0.2,0.2,0.2,0.2c0,0,0.1,0,0.1,0.1c0,0.1,1.5,0.1,1.5,0c0,0,0.1-0.1,0.2-0.1c0.1,0,0.1-0.1,0.1-0.1
		c0-0.1,0.1,0,0.1,0.1c0,0.2,0.2,0.2,0.6,0.2c0.6,0,0.6,0,0.6-0.4v-0.4h-0.2h-0.2l0-0.5c0-0.3,0-0.8,0-1.3c0-0.5,0-0.8-0.1-0.8
		c0,0-0.1,0-0.1-0.1C95,91.9,93.8,91.6,92.7,91.7 M63.2,91.8c0,0-0.1,0.1-0.1,0.1s-0.2,0-0.2,0.1c0,0-0.1,0.1-0.2,0.1
		c-0.1,0-0.1,0.1-0.1,0.1c0,0-0.1,0.1-0.2,0.2c-0.1,0.1-0.2,0.2-0.2,0.2c0,0,0,0.1,0,0.1c0,0-0.1,0.1-0.1,0.1c0,0.1-0.1,0.2-0.1,0.2
		c-0.1,0.1-0.1,1.6,0,1.7c0,0,0.1,0.1,0.1,0.2c0,0.1,0.1,0.1,0.1,0.1c0,0,0.1,0,0.1,0.1c0,0.1,0.4,0.5,0.5,0.5c0,0,0.1,0,0.1,0.1
		c0,0,0.1,0.1,0.2,0.1c0.1,0,0.2,0.1,0.2,0.1c0,0.1,0.8,0.1,0.9,0c0.1,0,0.2-0.1,0.3-0.1c0.1,0,0.2-0.1,0.2-0.1c0,0,0-0.1,0.1-0.1
		c0,0,0.1,0,0.1-0.1c0,0,0.1-0.1,0.2-0.1c0.1,0,0.1-0.1,0.2-0.2c0-0.1,0.1-0.1,0.1-0.1c0,0,0.1-0.1,0.1-0.2c0-0.1,0.1-0.2,0.1-0.2
		c0,0,0.1-0.1,0.1-0.2v-0.2h-0.4c-0.5,0-0.6,0.1-0.7,0.3c0,0.1-0.1,0.1-0.2,0.1c-0.1,0-0.2,0.1-0.2,0.1c0,0-0.1,0-0.3,0
		c-0.1,0-0.3,0-0.3,0c0,0-0.1-0.1-0.1-0.1c-0.2,0-0.3-0.2-0.4-0.4c0-0.1-0.1-0.1-0.1-0.1c0,0,0-0.1,0-0.1v-0.1h1.4h1.4l0-0.6
		c0-0.4,0-0.6-0.1-0.6c0,0-0.1-0.1-0.1-0.2c0-0.1,0-0.1-0.1-0.2c0,0-0.1-0.1-0.1-0.1c0-0.1-0.5-0.6-0.7-0.7c-0.1,0-0.2-0.1-0.2-0.1
		C64.3,91.7,63.2,91.8,63.2,91.8 M95.9,93.4c0,1.1,0,1.6,0.1,1.6c0,0,0.1,0.1,0.1,0.2c0,0.1,0.3,0.4,0.4,0.4c0,0,0.1,0,0.1,0.1
		c0,0.1,1.3,0.1,1.4,0c0,0,0.1-0.1,0.1-0.1c0,0,0.1,0,0.1-0.1c0.1-0.1,0.2-0.1,0.2,0.1c0,0.1,0,0.1,0.5,0.1c0.6,0,0.5,0.2,0.5-2.1
		l0-1.8l-0.5,0l-0.5,0l0,1.3l0,1.3l-0.2,0.2c-0.3,0.3-0.8,0.3-1.1,0.1l-0.1-0.1l0-1.4l0-1.4h-0.5h-0.5L95.9,93.4 M106.8,92.5
		c0,0,0.1,0.1,0.2,0.1c0.2,0.1,0.4,0.4,0.5,0.6l0,0.1h-0.8h-0.8v-0.1c0-0.1,0-0.1,0.1-0.1c0,0,0.1,0,0.1-0.1c0-0.1,0.3-0.4,0.5-0.4
		c0.1,0,0.1-0.1,0.1-0.1c0,0,0.1,0,0.2,0C106.7,92.4,106.8,92.4,106.8,92.5 M117.1,92.5C117.1,92.5,117.1,92.5,117.1,92.5
		c0.2,0.1,0.5,0.4,0.6,0.6l0,0.2h-0.8H116l0.1-0.2c0.1-0.2,0.4-0.6,0.5-0.6c0,0,0.1,0,0.1-0.1s0.1-0.1,0.2-0.1
		C116.9,92.4,117.1,92.4,117.1,92.5 M63.9,92.6c0,0,0,0.1,0.1,0.1c0.2,0,0.5,0.4,0.5,0.6c0,0.1-0.1,0.1-0.8,0.1
		c-0.7,0-0.8,0-0.8-0.1c0,0,0-0.1,0.1-0.1c0,0,0.1,0,0.1-0.1c0-0.1,0.4-0.5,0.5-0.5c0.1,0,0.1,0,0.1-0.1c0,0,0.1-0.1,0.1-0.1
		C63.9,92.5,63.9,92.5,63.9,92.6 M72.4,92.6c0.3,0.1,0.5,0.4,0.5,0.6c0,0.1,0.1,0.2,0.1,0.2c0,0,0,0.2,0,0.4s0,0.4,0,0.4
		c0,0-0.1,0.1-0.1,0.2c0,0.2-0.3,0.5-0.5,0.5c-0.1,0-0.1,0.1-0.1,0.1c0,0.1-0.3,0.1-0.3,0c0,0-0.1-0.1-0.2-0.1
		c-0.2,0-0.4-0.2-0.4-0.4c0-0.1-0.1-0.1-0.1-0.2c-0.1-0.1-0.1-1.1,0-1.3c0.1-0.1,0.1-0.1,0.1-0.1c0-0.1,0.2-0.3,0.4-0.3
		c0.1,0,0.1-0.1,0.1-0.1C71.9,92.5,72.2,92.5,72.4,92.6 M85.4,92.7c0.3,0.2,0.4,0.3,0.4,0.5l0,0.2H85h-0.8l0-0.2
		c0-0.2,0.2-0.4,0.4-0.5c0.1,0,0.1-0.1,0.1-0.1C84.8,92.5,85.2,92.5,85.4,92.7 M94.2,94.2c0,0.3-0.1,0.6-0.3,0.6c0,0-0.1,0-0.1,0.1
		c-0.1,0.2-0.8,0.1-1-0.1c-0.1-0.1-0.2-0.2-0.2-0.2s0-0.1,0.1-0.2c0-0.1,0.1-0.2,0.2-0.2c0.1,0,0.2-0.1,0.2-0.1c0,0,0.2-0.1,0.5-0.1
		c0.3,0,0.5-0.1,0.5-0.1s0,0,0.1,0C94.2,93.8,94.2,93.9,94.2,94.2 M0,51 M0,51"/>
</g>
</svg>
